<?xml version="1.0" encoding="utf-8"?>
<!-- Generator: Adobe Illustrator 25.4.1, SVG Export Plug-In . SVG Version: 6.00 Build 0)  -->
<svg version="1.1" xmlns="http://www.w3.org/2000/svg" xmlns:xlink="http://www.w3.org/1999/xlink" x="0px" y="0px"
	 viewBox="0 0 448 512" style="enable-background:new 0 0 448 512;" xml:space="preserve">
<style type="text/css">
	.st0{fill:#FFFFFF;}
	.st1{fill:#1ABC9C;}
</style>
<g id="Calque_1">
	<path class="st0" d="M224,256c70.7,0,128-57.3,128-128S294.7,0,224,0S96,57.3,96,128S153.3,256,224,256z M178.3,304
		C79.8,304,0,383.8,0,482.3C0,498.7,13.3,512,29.7,512h388.6c16.4,0,29.7-13.3,29.7-29.7c0-98.5-79.8-178.3-178.3-178.3H178.3z"/>
</g>
<g id="Calque_2">
	<path class="st1" d="M331.4,363.1c0-5.6-4.5-10.1-10.1-10.1s-10.1,4.5-10.1,10.1v45.3h-45.3c-5.6,0-10.1,4.5-10.1,10.1
		s4.5,10.1,10.1,10.1h45.3v45.3c0,5.6,4.5,10.1,10.1,10.1s10.1-4.5,10.1-10.1v-45.3h45.3c5.6,0,10.1-4.5,10.1-10.1
		s-4.5-10.1-10.1-10.1h-45.3V363.1z"/>
</g>
</svg>
